<svg id="Layer_1" data-name="Layer 1" xmlns="http://www.w3.org/2000/svg" xmlns:xlink="http://www.w3.org/1999/xlink" viewBox="0 0 135 40"><defs><style>.cls-1{fill:#fff;}.cls-2{fill:#a6a6a6;}.cls-3{fill:url(#linear-gradient);}.cls-4{fill:url(#linear-gradient-2);}.cls-5{mask:url(#mask);}.cls-6{fill:none;}.cls-7{mask:url(#mask-2);}.cls-8{fill:url(#linear-gradient-3);}.cls-9{fill:url(#linear-gradient-4);}.cls-10{mask:url(#mask-3);}</style><linearGradient id="linear-gradient" x1="-187.4" y1="276.7" x2="-187.37" y2="276.66" gradientTransform="matrix(234.09, 0, 0, -256.53, 43881.49, 71002.17)" gradientUnits="userSpaceOnUse"><stop offset="0" stop-color="#ff177b"/><stop offset="1" stop-color="#ffec73"/></linearGradient><linearGradient id="linear-gradient-2" x1="-186.96" y1="276.75" x2="-186.99" y2="276.64" gradientTransform="matrix(139, 0, 0, -256, 26004, 70856)" gradientUnits="userSpaceOnUse"><stop offset="0" stop-color="#064aa2"/><stop offset="1" stop-color="#63ffd4"/></linearGradient><mask id="mask" x="8.88" y="14.62" width="18.5" height="20.33" maskUnits="userSpaceOnUse"><g id="mask-4"><path id="path-3" class="cls-1" d="M19.87,24.66l-10.6-10a.51.51,0,0,0-.4.55V34.39a.47.47,0,0,0,.24.47Z"/></g></mask><mask id="mask-2" x="8.88" y="14.63" width="18.5" height="20.32" maskUnits="userSpaceOnUse"><g id="mask-6"><path id="path-5" class="cls-1" d="M9.55,34.8l6.12-3.36,2.71-1.5,4.45-2.4-3-2.88L9.12,34.86a.75.75,0,0,0,.5-.06"/></g></mask><linearGradient id="linear-gradient-3" x1="-187.37" y1="276.71" x2="-187.43" y2="276.67" gradientTransform="matrix(233.96, 0, 0, -256.96, 43857.42, 71123.21)" gradientUnits="userSpaceOnUse"><stop offset="0" stop-color="#ff4521"/><stop offset="1" stop-color="#8a33db"/></linearGradient><linearGradient id="linear-gradient-4" x1="-187.22" y1="276.47" x2="-187.16" y2="276.37" gradientTransform="matrix(171.21, 0, 0, -127.43, 32065.11, 35241.59)" gradientUnits="userSpaceOnUse"><stop offset="0" stop-color="#00a3b5"/><stop offset="1" stop-color="#d6ffa1"/></linearGradient><mask id="mask-3" x="8.88" y="14.59" width="18.5" height="20.35" maskUnits="userSpaceOnUse"><g id="mask-10"><path id="path-9" class="cls-1" d="M9.84,14.71a.79.79,0,0,0-.57-.1l10.6,10.06,2.93-2.78-4.42-2.45-6.68-3.7Z"/></g></mask></defs><title>android</title><path class="cls-2" d="M130.2,40H4.73A4.74,4.74,0,0,1,0,35.27V4.73A4.73,4.73,0,0,1,4.73,0H130.2A4.8,4.8,0,0,1,135,4.73V35.27A4.8,4.8,0,0,1,130.2,40Z"/><path class="cls-1" d="M134,35.27a3.83,3.83,0,0,1-3.83,3.83H4.73A3.83,3.83,0,0,1,.89,35.27V4.72A3.84,3.84,0,0,1,4.73.89H130.2A3.83,3.83,0,0,1,134,4.72V35.27Z"/><g id="Page-1"><g id="Artboard-1"><g id="Play-Store"><g id="icon"><path id="orange" class="cls-3" d="M18.38,19.44,9.85,14.72c-.47-.26-.95-.1-.95.45V34.42c0,.41.34.59.75.36l8.73-4.84L20.08,29l2.73-1.51,4.25-2.36c.5-.28.45-.66,0-.87s-4.28-2.37-4.28-2.37Z"/><g id="blue"><g id="Clip-2"><path id="path-3-2" data-name="path-3" class="cls-4" d="M19.87,24.66l-10.6-10a.51.51,0,0,0-.4.55V34.39a.47.47,0,0,0,.24.47Z"/></g><g class="cls-5"><path id="Fill-1" class="cls-6" d="M22.8,21.89l-4.43-2.45S10.3,15,9.83,14.78s-.95-.14-.95.4V34.46c0,.42.34.6.71.4S18.35,30,18.37,30l4.43-2.45s3.73-2,4.19-2.29.49-.69.08-.87-4.29-2.41-4.27-2.45"/></g></g><g id="red"><g class="cls-7"><path id="Fill-7" class="cls-8" d="M18.37,19.44S10.3,15,9.83,14.78s-.95-.14-.95.4V34.46c0,.42.34.6.71.4S18.35,30,18.37,30l4.43-2.45s3.73-2,4.19-2.29.49-.69.08-.87-4.29-2.41-4.27-2.45Z"/></g></g><g id="green"><g id="Clip-5"><path id="path-9-2" data-name="path-9" class="cls-9" d="M9.84,14.71a.79.79,0,0,0-.57-.1l10.6,10.06,2.93-2.78-4.42-2.45-6.68-3.7Z"/></g><g class="cls-10"><path id="Fill-4" class="cls-6" d="M22.8,21.89l-4.43-2.45S10.3,15,9.83,14.78s-.95-.14-.95.4V34.46c0,.42.34.6.71.4S18.35,30,18.37,30l4.43-2.45s3.73-2,4.19-2.29.49-.69.08-.87-4.29-2.41-4.27-2.45"/></g></g></g><g id="Google-play"><path id="Fill-1-2" data-name="Fill-1" d="M91.08,27.4l-1,.91c-.22.12-.44.26-.66.37a4.62,4.62,0,0,1-1.94.38,4.27,4.27,0,0,1-2.67-.79,5.22,5.22,0,0,1-2-4.25,4.56,4.56,0,0,1,4.59-4.66,3.88,3.88,0,0,1,2.06.56,3.37,3.37,0,0,1,1.4,2l-4.71,1.92L84.61,24c.5,2.56,2.22,4.05,4.13,4.05A4.93,4.93,0,0,0,91,27.37s.13-.07,0,0ZM88.2,22.25c.38-.14.57-.26.57-.54a2,2,0,0,0-2-1.75c-.79,0-2.28.63-2.28,2.82,0,.34,0,.71.06,1.07l3.61-1.6Z"/><path id="Fill-2" d="M81.25,27.29c0,.78.14.9.8,1l1,.1-.74.44H78.81c.46-.6.54-.66.54-1.07V15.32H77.78l1.5-.73h2.86a1.39,1.39,0,0,0-.88,1.29V27.29"/><path id="Fill-3" d="M75.79,20.34a3.29,3.29,0,0,1-.26,5.57,1.43,1.43,0,0,0-.56,1,1.11,1.11,0,0,0,.52.87l.72.56a3.51,3.51,0,0,1,1.67,2.82c0,1.89-1.82,3.8-5.25,3.8-2.89,0-4.29-1.39-4.29-2.88a2.89,2.89,0,0,1,1.54-2.45,8.53,8.53,0,0,1,3.81-.92,2.13,2.13,0,0,1-.6-1.37,1.83,1.83,0,0,1,.2-.78c-.22,0-.44,0-.64,0a3.17,3.17,0,0,1-3.31-3.16,3.62,3.62,0,0,1,1.28-2.7,5.41,5.41,0,0,1,3.57-1.11H78.3L77,20.34Zm-1.4,8.91a3.05,3.05,0,0,0-.46,0,7.85,7.85,0,0,0-2.11.33,2.29,2.29,0,0,0-1.73,2.11c0,1.45,1.39,2.5,3.54,2.5,1.93,0,3-.94,3-2.21,0-1-.66-1.6-2.19-2.7Zm.56-3.87a2,2,0,0,0,.5-1.47c0-1.44-.85-3.69-2.5-3.69a1.84,1.84,0,0,0-1.39.66,2.32,2.32,0,0,0-.44,1.48c0,1.34.78,3.57,2.48,3.57a2,2,0,0,0,1.35-.56Z"/><path id="Fill-4-2" data-name="Fill-4" d="M63.35,29.05a4.75,4.75,0,0,1-4.88-4.78,5,5,0,0,1,5.18-4.92,4.71,4.71,0,0,1,4.78,4.78,4.91,4.91,0,0,1-5.08,4.92Zm2.49-1.64a3.68,3.68,0,0,0,.6-2.25c0-1.79-.84-5.2-3.33-5.2a2.78,2.78,0,0,0-1.81.69,3.09,3.09,0,0,0-.92,2.48c0,2,1,5.32,3.41,5.32a2.55,2.55,0,0,0,2-1Z"/><path id="Fill-5" d="M52.7,29.05a4.74,4.74,0,0,1-4.88-4.78A5,5,0,0,1,53,19.35a4.71,4.71,0,0,1,4.78,4.78,4.91,4.91,0,0,1-5.08,4.92Zm2.49-1.64a3.7,3.7,0,0,0,.6-2.25c0-1.79-.84-5.2-3.33-5.2a2.77,2.77,0,0,0-1.81.69,3.09,3.09,0,0,0-.92,2.48c0,2,1,5.32,3.41,5.32a2.56,2.56,0,0,0,2-1Z"/><path id="Fill-6" d="M46.51,28.45l-2.69.62a19.56,19.56,0,0,1-3.11.33c-5.19,0-7.17-3.85-7.17-6.86,0-3.68,2.8-7.08,7.6-7.08a10.93,10.93,0,0,1,2.88.39A7.23,7.23,0,0,1,46.51,17l-1.56,1.49-.66.15.47-.75a5.35,5.35,0,0,0-4-1.78c-3,0-5.21,2.27-5.21,5.59a6.68,6.68,0,0,0,6.66,6.91,5.57,5.57,0,0,0,2.39-.47V25.12l-2.84.15,1.51-.81h4l-.49.47a.43.43,0,0,0-.19.3c0,.17,0,.72,0,.91v2.31"/><path id="Fill-7-2" data-name="Fill-7" d="M96.89,27.49V32.6h-1v-13h1v1.48a4,4,0,0,1,3.27-1.72c2.51,0,4.2,1.91,4.2,4.93s-1.69,5-4.2,5a4,4,0,0,1-3.27-1.76Zm6.43-3.12c0-2.3-1.19-4.06-3.3-4.06a4,4,0,0,0-3.11,1.94v4.21a4.07,4.07,0,0,0,3.11,2c2.11,0,3.3-1.77,3.3-4.08Z"/><polygon id="Fill-8" points="105.75 15.98 106.79 15.98 106.79 29.05 105.75 29.05 105.75 15.98"/><path id="Fill-9" d="M118.08,31.7a2.38,2.38,0,0,0,.82.16c.62,0,1.05-.25,1.44-1.15l.74-1.68-4-9.5h1.13l3.42,8.23L125,19.53h1.15L121.31,31a2.49,2.49,0,0,1-2.39,1.75,4,4,0,0,1-1-.14l.17-.94"/><path id="Fill-10" d="M115.22,29c-.07-.33-.12-.62-.16-.86a5.78,5.78,0,0,1,0-.74,4.35,4.35,0,0,1-3.53,1.78,3.33,3.33,0,0,1-2.31-.74,2.59,2.59,0,0,1-.82-2,2.39,2.39,0,0,1,1.2-2.07,5.49,5.49,0,0,1,3.1-.79H115V22.43a2,2,0,0,0-.69-1.6,3,3,0,0,0-2-.58,3.08,3.08,0,0,0-1.87.53,1.61,1.61,0,0,0-.71,1.33h-1l0-.05a2.2,2.2,0,0,1,1-1.89,4.28,4.28,0,0,1,2.71-.81,4.22,4.22,0,0,1,2.69.8,2.74,2.74,0,0,1,1,2.29v4.67a7.43,7.43,0,0,0,.06,1,6.21,6.21,0,0,0,.2.94Zm-3.62-.68a3.8,3.8,0,0,0,2.12-.58A2.93,2.93,0,0,0,115,26.29V24.46h-2.39a3.89,3.89,0,0,0-2.26.61,1.78,1.78,0,0,0-.9,1.48,1.64,1.64,0,0,0,.57,1.31,2.29,2.29,0,0,0,1.56.5Z"/></g><g id="Get-it-on"><path id="Fill-1-3" data-name="Fill-1" d="M33.26,8.58a2.83,2.83,0,0,1,3.05-2.8A2.78,2.78,0,0,1,38.65,6.9l-.83.45a2,2,0,1,0-1.51,3.19A2.17,2.17,0,0,0,37.69,10V9.21H35.95V8.38H38.7v2a3.25,3.25,0,0,1-2.39,1,2.84,2.84,0,0,1-3.05-2.81"/><polyline id="Fill-2-2" data-name="Fill-2" points="40.02 11.31 40.02 5.87 44.06 5.87 44.06 6.71 41.05 6.71 41.05 8.11 44 8.11 44 8.95 41.05 8.95 41.05 10.46 44.06 10.46 44.06 11.31 40.02 11.31"/><polyline id="Fill-3-2" data-name="Fill-3" points="46.81 11.31 46.81 6.71 45.05 6.71 45.05 5.87 49.58 5.87 49.58 6.71 47.83 6.71 47.83 11.31 46.81 11.31"/><polygon id="Fill-4-3" data-name="Fill-4" points="53.21 5.87 54.2 5.87 54.2 11.31 53.21 11.31 53.21 5.87"/><polyline id="Fill-5-2" data-name="Fill-5" points="57.03 11.31 57.03 6.71 55.27 6.71 55.27 5.87 59.8 5.87 59.8 6.71 58.05 6.71 58.05 11.31 57.03 11.31"/><path id="Fill-6-2" data-name="Fill-6" d="M63.18,8.59a3,3,0,1,1,3,2.8,2.81,2.81,0,0,1-3-2.8Zm4.95,0a1.94,1.94,0,1,0-3.87,0,1.94,1.94,0,1,0,3.87,0Z"/><polyline id="Fill-7-3" data-name="Fill-7" points="74.4 11.31 71.37 7.42 71.37 11.31 70.36 11.31 70.36 5.87 71.4 5.87 74.37 9.63 74.37 5.87 75.38 5.87 75.38 11.31 74.4 11.31"/></g></g></g></g></svg>