<svg id="Layer_1" data-name="Layer 1" xmlns="http://www.w3.org/2000/svg" viewBox="0 0 135 40"><defs><style>.cls-1{fill:#a6a6a6;}.cls-2{fill:#fff;}</style></defs><title>app-store</title><path class="cls-1" d="M130.2,40H4.73A4.74,4.74,0,0,1,0,35.27V4.73A4.73,4.73,0,0,1,4.73,0H130.2A4.8,4.8,0,0,1,135,4.73V35.27A4.8,4.8,0,0,1,130.2,40Z"/><path class="cls-2" d="M134,35.27a3.83,3.83,0,0,1-3.83,3.83H4.73A3.83,3.83,0,0,1,.89,35.27V4.72A3.84,3.84,0,0,1,4.73.89H130.2A3.83,3.83,0,0,1,134,4.72V35.27Z"/><path d="M30.13,19.78a5.8,5.8,0,0,1,2.76-4.86,5.93,5.93,0,0,0-4.67-2.53c-2-.21-3.87,1.18-4.88,1.18s-2.57-1.16-4.23-1.13a6.22,6.22,0,0,0-5.24,3.19c-2.27,3.92-.58,9.69,1.6,12.86,1.09,1.55,2.36,3.28,4,3.22s2.23-1,4.19-1,2.51,1,4.2,1,2.84-1.56,3.89-3.13a13,13,0,0,0,1.78-3.62,5.59,5.59,0,0,1-3.42-5.15Zm-3.2-9.48a5.71,5.71,0,0,0,1.31-4.09,5.82,5.82,0,0,0-3.76,1.94,5.45,5.45,0,0,0-1.34,3.94,4.78,4.78,0,0,0,3.79-1.79ZM53.64,31.5H51.37l-1.24-3.91H45.81L44.62,31.5H42.41L46.7,18.2h2.65L53.66,31.5ZM49.75,26l-1.12-3.47Q48.45,21.95,48,20h0q-.2.85-.63,2.51L46.18,26h3.57Zm14.91.63a5.45,5.45,0,0,1-1.32,3.87,3.89,3.89,0,0,1-3,1.26,3,3,0,0,1-2.73-1.36h0v5.06H55.5V25.07q0-1.54-.08-3.16H57.3l.12,1.52h0a3.79,3.79,0,0,1,6.07-.38,5.3,5.3,0,0,1,1.14,3.54Zm-2.17.08a4,4,0,0,0-.63-2.31A2.18,2.18,0,0,0,60,23.41a2.21,2.21,0,0,0-1.43.52,2.42,2.42,0,0,0-.84,1.38,2.85,2.85,0,0,0-.1.65v1.6a2.56,2.56,0,0,0,.64,1.77,2.13,2.13,0,0,0,1.67.72,2.2,2.2,0,0,0,1.88-.92,4.08,4.08,0,0,0,.67-2.45Zm13.21-.08a5.45,5.45,0,0,1-1.32,3.87,3.87,3.87,0,0,1-2.94,1.26,2.93,2.93,0,0,1-2.72-1.36h0v5.06H66.54V25.07q0-1.54-.08-3.16h1.88l.12,1.52h0a3.8,3.8,0,0,1,6.08-.38,5.29,5.29,0,0,1,1.14,3.54Zm-2.17.08a3.94,3.94,0,0,0-.63-2.31A2.18,2.18,0,0,0,71,23.41a2.24,2.24,0,0,0-1.44.52,2.42,2.42,0,0,0-.84,1.38,2.64,2.64,0,0,0-.1.65v1.6a2.55,2.55,0,0,0,.64,1.77,2.13,2.13,0,0,0,1.67.72,2.18,2.18,0,0,0,1.87-.92,4.06,4.06,0,0,0,.67-2.45ZM88,27.77a3.55,3.55,0,0,1-1.18,2.76,5.24,5.24,0,0,1-3.62,1.17,6.38,6.38,0,0,1-3.45-.82l.5-1.77a5.81,5.81,0,0,0,3.08.85,2.91,2.91,0,0,0,1.87-.54A1.78,1.78,0,0,0,85.9,28a1.85,1.85,0,0,0-.56-1.36,5.19,5.19,0,0,0-1.84-1Q80,24.28,80,21.77a3.4,3.4,0,0,1,1.22-2.69,4.87,4.87,0,0,1,3.26-1,6.49,6.49,0,0,1,3,.63L87,20.41a5.23,5.23,0,0,0-2.55-.61,2.58,2.58,0,0,0-1.76.55,1.57,1.57,0,0,0-.54,1.21,1.64,1.64,0,0,0,.61,1.31,6.72,6.72,0,0,0,1.94,1,6.66,6.66,0,0,1,2.53,1.62A3.39,3.39,0,0,1,88,27.83Zm7-4.26H92.74v4.66q0,1.78,1.24,1.78a3.75,3.75,0,0,0,.95-.1L95,31.46a4.86,4.86,0,0,1-1.66.24,2.57,2.57,0,0,1-2-.77,3.75,3.75,0,0,1-.71-2.59V23.51h-1.4v-1.6h1.4V20.15l2.09-.63v2.39h2.35v1.6Zm10.6,3.12a5.26,5.26,0,0,1-1.26,3.63,4.51,4.51,0,0,1-3.52,1.46,4.3,4.3,0,0,1-3.36-1.4,5.08,5.08,0,0,1-1.25-3.53,5.18,5.18,0,0,1,1.3-3.65,4.49,4.49,0,0,1,3.49-1.42,4.4,4.4,0,0,1,3.4,1.4,5,5,0,0,1,1.23,3.51Zm-2.21.07a4.33,4.33,0,0,0-.57-2.28A2.11,2.11,0,0,0,101,23.27a2.14,2.14,0,0,0-2,1.15,4.4,4.4,0,0,0-.57,2.32A4.32,4.32,0,0,0,99,29a2.18,2.18,0,0,0,3.85,0,4.31,4.31,0,0,0,.59-2.29Zm9.14-2.92a3.59,3.59,0,0,0-.67-.06,2,2,0,0,0-1.74.85,3.2,3.2,0,0,0-.53,1.9v5h-2.13l0-6.58c0-1.11,0-2.12-.08-3h1.86l.08,1.83h.06a3.28,3.28,0,0,1,1.07-1.52,2.54,2.54,0,0,1,1.54-.52,2.9,2.9,0,0,1,.53,0v2.05Zm9.54,2.47a5,5,0,0,1-.08,1h-6.4a2.79,2.79,0,0,0,.93,2.17,3.21,3.21,0,0,0,2.09.67,6.94,6.94,0,0,0,2.59-.46l.33,1.48a8.11,8.11,0,0,1-3.22.59,4.65,4.65,0,0,1-3.51-1.32,4.89,4.89,0,0,1-1.27-3.53,5.54,5.54,0,0,1,1.19-3.62,4.09,4.09,0,0,1,3.36-1.54,3.56,3.56,0,0,1,3.14,1.54,5.12,5.12,0,0,1,.85,3Zm-2-.55a2.88,2.88,0,0,0-.41-1.64,1.86,1.86,0,0,0-1.7-.89,2,2,0,0,0-1.7.87,3.08,3.08,0,0,0-.63,1.65h4.44ZM49,10A3.28,3.28,0,0,1,48,12.67a4.2,4.2,0,0,1-2.78.82,13.66,13.66,0,0,1-1.54-.07V7a11.16,11.16,0,0,1,1.8-.14,3.9,3.9,0,0,1,2.59.75A3,3,0,0,1,49,10Zm-1.1,0a2.39,2.39,0,0,0-.61-1.76,2.42,2.42,0,0,0-1.78-.61,4.48,4.48,0,0,0-.85.07v4.88a5.45,5.45,0,0,0,.71,0A2.48,2.48,0,0,0,47.27,12,2.7,2.7,0,0,0,47.92,10Zm7,1a2.58,2.58,0,0,1-.62,1.78,2.21,2.21,0,0,1-1.73.72,2.1,2.1,0,0,1-1.65-.69,2.5,2.5,0,0,1-.61-1.73,2.53,2.53,0,0,1,.64-1.79,2.22,2.22,0,0,1,1.71-.69,2.16,2.16,0,0,1,1.67.69,2.51,2.51,0,0,1,.6,1.73Zm-1.09,0A2.12,2.12,0,0,0,53.54,10a1.08,1.08,0,0,0-1.9,0,2.16,2.16,0,0,0-.28,1.14,2.12,2.12,0,0,0,.28,1.12,1.07,1.07,0,0,0,1.89,0,2.09,2.09,0,0,0,.29-1.13Zm8.94-2.35-1.47,4.72h-1l-.61-2a15.21,15.21,0,0,1-.38-1.52h0a11.1,11.1,0,0,1-.38,1.53l-.65,2.05h-1L55.93,8.74H57L57.54,11c.13.53.24,1,.32,1.52h0q.12-.59.39-1.5l.67-2.25h.85L60.44,11c.16.54.28,1.05.38,1.55h0A14.8,14.8,0,0,1,61.16,11l.57-2.2h1Zm5.43,4.72h-1v-2.7c0-.83-.32-1.25-.95-1.25a1,1,0,0,0-.76.35,1.22,1.22,0,0,0-.29.81v2.8H64.1V10.08q0-.61,0-1.35H65l.05.74h0a1.48,1.48,0,0,1,.54-.57,1.82,1.82,0,0,1,.95-.26,1.53,1.53,0,0,1,1.1.43,2.07,2.07,0,0,1,.54,1.56v2.81Zm2.89,0H70V6.56h1v6.88Zm6.17-2.39a2.6,2.6,0,0,1-.62,1.79,2.22,2.22,0,0,1-1.73.72,2.1,2.1,0,0,1-1.65-.69,2.48,2.48,0,0,1-.61-1.73,2.56,2.56,0,0,1,.64-1.79A2.22,2.22,0,0,1,75,8.65a2.14,2.14,0,0,1,1.67.69,2.5,2.5,0,0,1,.6,1.73Zm-1.09,0A2.12,2.12,0,0,0,75.89,10,1.08,1.08,0,0,0,74,10a2.14,2.14,0,0,0-.28,1.14A2.13,2.13,0,0,0,74,12.25a1.07,1.07,0,0,0,1.89,0,2.12,2.12,0,0,0,.29-1.13Zm6.16,2.37h-.94l-.08-.54h0a1.62,1.62,0,0,1-1.38.65,1.4,1.4,0,0,1-1.08-.43,1.33,1.33,0,0,1-.37-1,1.48,1.48,0,0,1,.72-1.32,3.76,3.76,0,0,1,2-.44v-.09c0-.62-.33-.93-1-.93A2.19,2.19,0,0,0,79,9.75l-.22-.69a3,3,0,0,1,1.61-.4c1.23,0,1.85.65,1.85,1.95v1.74a6.63,6.63,0,0,0,.07,1.12Zm-1.09-1.62v-.73c-1.16,0-1.73.3-1.73.95a.7.7,0,0,0,.2.55.76.76,0,0,0,.51.19,1.06,1.06,0,0,0,.65-.22.92.92,0,0,0,.39-.74Zm7,1.62h-.93l-.05-.75h0a1.56,1.56,0,0,1-1.51.86,1.76,1.76,0,0,1-1.42-.67,2.59,2.59,0,0,1-.56-1.73,2.73,2.73,0,0,1,.61-1.85,1.88,1.88,0,0,1,1.46-.66,1.42,1.42,0,0,1,1.33.64h0V6.56h1.05v5.61c0,.46,0,.88,0,1.27Zm-1.08-2v-.78a1.18,1.18,0,0,0-.41-1,1,1,0,0,0-.7-.25,1.07,1.07,0,0,0-.92.46,2,2,0,0,0-.34,1.19,1.87,1.87,0,0,0,.32,1.14,1.08,1.08,0,0,0,.92.47,1,1,0,0,0,.83-.39,1.28,1.28,0,0,0,.3-.86Zm10-.41a2.6,2.6,0,0,1-.62,1.79,2.22,2.22,0,0,1-1.73.72,2.11,2.11,0,0,1-1.65-.69,2.48,2.48,0,0,1-.61-1.73,2.56,2.56,0,0,1,.64-1.79A2.22,2.22,0,0,1,95,8.66a2.16,2.16,0,0,1,1.67.69,2.5,2.5,0,0,1,.6,1.73Zm-1.09,0A2.12,2.12,0,0,0,95.88,10a1,1,0,0,0-.94-.56A1.06,1.06,0,0,0,94,10a2.14,2.14,0,0,0-.28,1.14A2.13,2.13,0,0,0,94,12.24a1.06,1.06,0,0,0,1,.57,1,1,0,0,0,.94-.57,2.1,2.1,0,0,0,.29-1.13Zm6.72,2.37h-1v-2.7c0-.83-.32-1.25-.95-1.25a1,1,0,0,0-.76.35,1.23,1.23,0,0,0-.3.81v2.8H98.78V10.1c0-.42,0-.87,0-1.35h.92l.05.73h0a1.5,1.5,0,0,1,.54-.57,1.78,1.78,0,0,1,.95-.26,1.53,1.53,0,0,1,1.1.43,2.09,2.09,0,0,1,.54,1.57v2.82Zm7.05-3.93h-1.15v2.29c0,.59.21.88.61.88a1.57,1.57,0,0,0,.47-.05l0,.8a2.59,2.59,0,0,1-.81.11,1.26,1.26,0,0,1-1-.38,1.86,1.86,0,0,1-.35-1.27V9.51h-.69V8.72h.69V7.86l1-.31V8.72h1.16v.81Zm5.55,3.93h-1.05V10.78c0-.84-.32-1.27-.95-1.27a1,1,0,0,0-1,.74,1.35,1.35,0,0,0-.05.38v2.84h-1V6.57h1V9.4h0a1.58,1.58,0,0,1,1.42-.77,1.46,1.46,0,0,1,1.08.43,2.12,2.12,0,0,1,.54,1.58v2.83Zm5.72-2.58a2.49,2.49,0,0,1,0,.48H118a1.38,1.38,0,0,0,.46,1.07,1.56,1.56,0,0,0,1,.33,3.45,3.45,0,0,0,1.27-.22l.16.73a3.85,3.85,0,0,1-1.58.29,2.28,2.28,0,0,1-1.72-.64,2.37,2.37,0,0,1-.63-1.73,2.68,2.68,0,0,1,.58-1.77,2,2,0,0,1,1.65-.75,1.76,1.76,0,0,1,1.54.76,2.53,2.53,0,0,1,.42,1.49Zm-1-.27a1.38,1.38,0,0,0-.2-.8.91.91,0,0,0-.83-.43,1,1,0,0,0-.83.43,1.59,1.59,0,0,0-.31.82h2.18Z"/></svg>